# xmcd
#
# Track frame offsets:
#	183
#	17658
#	32548
#	45538
#	66983
#	80583
#	101820
#	123933
#	143870
#	159758
#	181708
#
# Disc length: 2692 seconds
#
# Revision: 1
# Processed by: cddbd v1.5.2PL0 Copyright (c) Steve Scherf et al.
# Submitted via: audiograbber 1.83.01
#
DISCID=840a820b
DTITLE=TALLEY, James - American Originals
DYEAR=1985
DGENRE=
TTITLE0=Find Somebody And Love Them
TTITLE1=Bury Me In New Orleans
TTITLE2=Baby, She Loves A Rocker
TTITLE3=Whiskey On The Side
TTITLE4=Are They Gonna Make Us Outlaws Again
TTITLE5=A Way To Say I Love You
TTITLE6=New York Town
TTITLE7=Open All Night
TTITLE8=Montana Song
TTITLE9=Ready To Please
TTITLE10=We're All One Family (All Over The World)
EXTD=
EXTT0=
EXTT1=
EXTT2=
EXTT3=
EXTT4=
EXTT5=
EXTT6=
EXTT7=
EXTT8=
EXTT9=
EXTT10=
PLAYORDER=
